<?xml version="1.0" encoding="utf-8"?>
<!-- Generator: Adobe Illustrator 19.2.1, SVG Export Plug-In . SVG Version: 6.00 Build 0)  -->
<svg version="1.1" id="Layer_1" xmlns="http://www.w3.org/2000/svg" xmlns:xlink="http://www.w3.org/1999/xlink" x="0px" y="0px"
	 viewBox="0 0 521.6 151.8" style="enable-background:new 0 0 521.6 151.8;" xml:space="preserve">
<style type="text/css">
	.st0{fill:#FFFFFF;}
	.st1{fill:#D6702C;}
	.st2{fill:#B71D6D;}
	.st3{fill:#69B8B2;}
	.st4{fill:#EFCC32;}
</style>
<g>
	<path class="st0" d="M224.9,20c0.3-1.6,1.2-2.4,2.7-2.4h27.9c1.7,0,2.4,0.8,2.1,2.4l-1.3,7.5c-0.2,1.6-1.1,2.4-2.7,2.4h-7.3
		l-8.6,48.4c-0.2,1.6-1.1,2.4-2.7,2.4h-8.7c-1.7,0-2.4-0.8-2.1-2.4l8.6-48.4h-7.1c-1.7,0-2.4-0.8-2.1-2.4L224.9,20z"/>
	<path class="st0" d="M283.3,17.6c2,0,3,0.9,3,2.6l0.8,58c0.1,1.7-0.7,2.6-2.3,2.6H276c-1.7,0-2.4-0.8-2.3-2.3V68.2h-11.4l-3.6,10.2
		c-0.4,0.8-0.7,1.4-1.1,1.8c-0.4,0.4-1,0.5-1.7,0.5h-9.1c-0.8,0-1.4-0.2-1.7-0.7c-0.3-0.5-0.3-1.1,0-1.9l21.1-58
		c0.7-1.7,1.9-2.6,3.8-2.6H283.3z M274.3,56.4l0.4-25.5h-0.4l-8.6,25.5H274.3z"/>
	<path class="st0" d="M322.6,68.7c0.9-0.2,1.6-0.1,2,0.3c0.4,0.4,0.6,1,0.4,1.8l-0.8,6.9c-0.1,0.8-0.4,1.5-0.9,1.9s-1.1,0.7-1.9,1
		c-2.9,0.7-5.6,1.1-8.3,1.1c-6.4,0-11.2-1.3-14.2-3.9c-3-2.6-4.6-7.3-4.6-14c0-3.7,0.5-8.6,1.5-14.7c1.6-8.6,3.5-15.2,5.8-19.9
		c2.3-4.7,5.1-7.9,8.4-9.7c3.3-1.8,7.7-2.7,13.1-2.7c2.8,0,5.7,0.3,8.8,1c1.6,0.4,2.2,1.3,1.9,3l-1.5,6.9c-0.4,1.8-1.4,2.4-3.1,2
		c-2.5-0.4-4.3-0.5-5.4-0.5c-4.2,0-7.3,1.3-9.1,3.9c-1.8,2.6-3.5,8-5,16.2c-0.9,5.5-1.3,9.5-1.3,11.7c0,3.3,0.7,5.6,2,6.8
		c1.3,1.2,3.6,1.8,6.7,1.8C318.6,69.4,320.5,69.2,322.6,68.7"/>
	<path class="st0" d="M340.7,20c0.3-1.6,1.2-2.4,2.7-2.4h8.7c1.7,0,2.4,0.8,2.1,2.4l-10.3,58.3c-0.4,1.6-1.3,2.4-2.7,2.4h-8.7
		c-1.8,0-2.5-0.8-2.1-2.4L340.7,20z"/>
	<path class="st0" d="M393.7,20.7c2.8,2.7,4.2,7.4,4.2,14.1c0,3.8-0.5,8.6-1.5,14.4c-1.5,8.6-3.4,15.3-5.6,20
		c-2.3,4.7-4.9,8-7.9,9.8c-3,1.8-6.8,2.6-11.5,2.6c-5.6,0-9.8-1.3-12.7-4c-2.8-2.7-4.2-7.3-4.2-14c0-3.7,0.5-8.5,1.5-14.4
		c1.6-8.6,3.5-15.3,5.7-20c2.3-4.8,4.9-8,7.9-9.8c3-1.8,6.8-2.6,11.5-2.6C386.7,16.7,390.9,18,393.7,20.7 M378.4,65.6
		c1.4-2.7,2.8-8.1,4.2-16.4c1.1-6.8,1.7-11.4,1.7-13.9c0-2.5-0.4-4.2-1.1-5.1c-0.7-0.9-1.8-1.4-3.4-1.4c-1.7,0-3,0.5-4.1,1.6
		c-1.1,1-2.1,3-3,6c-1,2.9-1.9,7.2-2.9,12.9c-1.1,6.8-1.7,11.4-1.7,13.9s0.4,4.1,1.1,5.1c0.7,1,1.9,1.4,3.5,1.4
		C375.1,69.6,377,68.2,378.4,65.6"/>
	<path class="st0" d="M436.9,78.4c-0.2,1.6-1.1,2.4-2.7,2.4h-7.5c-1.7,0-2.7-0.7-3-2.1l-7.2-32.6l-5.7,32.2
		c-0.3,1.6-1.2,2.4-2.6,2.4H400c-1.7,0-2.4-0.8-2.1-2.4L408.1,20c0.2-1.6,1.1-2.4,2.7-2.4h7.6c1.6,0,2.6,0.7,3,2l7.2,32.7l5.6-32.2
		c0.3-1.6,1.2-2.4,2.7-2.4h8.2c1.7,0,2.4,0.8,2.2,2.4L436.9,78.4z"/>
	<path class="st0" d="M461.9,54.6l-2.5,13.9H475c1.7,0,2.4,0.8,2.1,2.4l-1.3,7.5c-0.4,1.6-1.3,2.4-2.7,2.4h-26.8
		c-1.7,0-2.4-0.8-2.1-2.4L454.5,20c0.2-1.6,1.1-2.4,2.7-2.4h26.5c1.7,0,2.4,0.8,2.1,2.4l-1.3,7.5c-0.2,1.6-1.1,2.4-2.7,2.4h-15.6
		l-2.2,12.7h14.5c1.6,0,2.3,0.8,2.1,2.4l-1.3,7.1c-0.2,1.6-1,2.4-2.6,2.4H461.9z"/>
	<path class="st0" d="M511,75.8c-3.8,3.8-9,5.7-15.7,5.7c-5.5,0-9.6-0.4-12.3-1.3c-0.9-0.3-1.5-0.6-1.8-1c-0.3-0.4-0.4-1-0.2-1.9
		l1.6-7c0.4-1.8,1.6-2.5,3.4-1.9c2.1,0.7,4.8,1.1,8,1.1c2.4,0,4.5-0.6,6.1-1.7c1.6-1.1,2.5-3,2.5-5.5c0-1.3-0.4-2.6-1.3-3.8
		c-0.8-1.3-2.4-2.8-4.6-4.7c-5.5-4.5-8.2-9.9-8.2-16.2c0-14,6.9-21,20.8-21c4.5,0,7.9,0.3,10.3,1c0.8,0.2,1.4,0.6,1.7,1
		s0.4,1.1,0.1,2l-1.6,7.2c-0.4,1.7-1.5,2.3-3.3,1.8c-2.3-0.5-4.6-0.8-6.8-0.8c-4.8,0-7.2,2.2-7.2,6.5c0,2.6,1.8,5.6,5.5,9
		c5.7,5,8.5,10.4,8.5,16.3C516.7,67,514.8,72,511,75.8"/>
	<path class="st1" d="M87.9,12.4h8.7c1.2,0,2.4-1,2.6-2.2l1.4-8C100.9,1,100.1,0,98.8,0h-8.7c-1.2,0-2.4,1-2.6,2.2l-1.4,8
		C85.9,11.4,86.7,12.4,87.9,12.4"/>
	<path class="st2" d="M344.2,12.4h8.7c1.2,0,2.4-1,2.6-2.2l1.4-8c0.2-1.2-0.6-2.2-1.8-2.2h-8.7c-1.2,0-2.4,1-2.6,2.2l-1.4,8
		C342.1,11.4,343,12.4,344.2,12.4"/>
	<path class="st3" d="M34.4,98.3h8.7c1.2,0,2.4-1,2.6-2.2l1.4-8c0.2-1.2-0.6-2.2-1.8-2.2h-8.7c-1.2,0-2.4,1-2.6,2.2l-1.4,8
		C32.4,97.3,33.2,98.3,34.4,98.3"/>
	<path class="st4" d="M423.2,98.3h8.7c1.2,0,2.4-1,2.6-2.2l1.4-8c0.2-1.2-0.6-2.2-1.8-2.2h-8.7c-1.2,0-2.4,1-2.6,2.2l-1.4,8
		C421.1,97.3,422,98.3,423.2,98.3"/>
	<path class="st0" d="M144.9,149.8h4.6c0.7,0,1.3-0.5,1.4-1.2l0.8-4.3c0.1-0.7-0.3-1.2-1-1.2h-4.6c-0.7,0-1.3,0.5-1.4,1.2l-0.8,4.3
		C143.8,149.3,144.3,149.8,144.9,149.8"/>
	<path class="st0" d="M132.3,137.6h4.6c0.7,0,1.3-0.5,1.4-1.2l0.8-4.3c0.1-0.7-0.3-1.2-1-1.2h-4.6c-0.7,0-1.3,0.5-1.4,1.2l-0.8,4.3
		C131.2,137,131.7,137.6,132.3,137.6"/>
	<path class="st0" d="M161.7,137.6h4.6c0.7,0,1.3-0.5,1.4-1.2l0.8-4.3c0.1-0.7-0.3-1.2-1-1.2h-4.6c-0.7,0-1.3,0.5-1.4,1.2l-0.8,4.3
		C160.6,137,161,137.6,161.7,137.6"/>
	<path class="st0" d="M151.5,106.1c0.2-0.8,0.6-1.3,1.4-1.3h4.5c0.9,0,1.2,0.4,1.1,1.3l-5.8,33.1c-0.2,0.8-0.6,1.3-1.4,1.3h-4.5
		c-0.9,0-1.3-0.4-1.1-1.3L151.5,106.1z"/>
	<path class="st0" d="M136.7,106.1c0.2-0.8,0.6-1.3,1.4-1.3h4.5c0.9,0,1.2,0.4,1.1,1.3l-3.6,20.9c-0.2,0.8-0.6,1.3-1.4,1.3h-4.5
		c-0.9,0-1.3-0.4-1.1-1.3L136.7,106.1z"/>
	<path class="st0" d="M166.3,106.1c0.2-0.8,0.6-1.3,1.4-1.3h4.5c0.9,0,1.2,0.4,1.1,1.3l-3.6,20.9c-0.2,0.8-0.6,1.3-1.4,1.3h-4.5
		c-0.9,0-1.3-0.4-1.1-1.3L166.3,106.1z"/>
	<path class="st0" d="M209.7,2.2h-76.4c-2.4,0-4.7,2-5.1,4.4l-12.8,85.2c-0.4,2.4,1.3,4.4,3.7,4.4h53c14.9,0,14.4-15.2,14.4-15.2
		s15.3,2.8,17.5-11.9c1.5-9.7,9.4-62.5,9.4-62.5C213.8,4.2,212.1,2.2,209.7,2.2 M147.4,40.6l4.7-26.7c0.2-1,0.7-1.5,1.7-1.5h6.1
		c1.1,0,1.5,0.5,1.3,1.5l-4.7,26.7c-0.2,1-0.8,1.5-1.7,1.5h-6.1C147.7,42.2,147.2,41.7,147.4,40.6 M140.2,77.3l0.8-4.8
		c0.1-0.8,0.6-1.5,1.4-2.3l13.1-13h-9.9c-1,0-1.5-0.5-1.3-1.5l0.9-5c0.2-1,0.7-1.5,1.7-1.5h19.1c1.1,0,1.5,0.5,1.3,1.5l-0.8,4.8
		c-0.1,0.8-0.6,1.5-1.4,2.3l-13.1,13h10.5c1.1,0,1.5,0.5,1.3,1.5l-0.9,5c-0.2,1-0.8,1.5-1.7,1.5h-19.9
		C140.4,78.9,140,78.4,140.2,77.3 M181.1,50.7l-4.7,26.7c-0.2,1-0.8,1.5-1.7,1.5h-6.1c-1.1,0-1.5-0.5-1.3-1.5l4.7-26.7
		c0.2-1,0.7-1.5,1.7-1.5h6.1C180.9,49.2,181.3,49.7,181.1,50.7 M188,14l-0.8,4.8c-0.1,0.8-0.6,1.5-1.4,2.3l-13.1,13h10.5
		c1.1,0,1.5,0.5,1.3,1.5l-0.9,5c-0.2,1-0.8,1.5-1.7,1.5H162c-1.1,0-1.5-0.5-1.3-1.5l0.8-4.8c0.1-0.8,0.6-1.5,1.4-2.3l13.1-13h-9.9
		c-1,0-1.5-0.5-1.3-1.5l0.9-5c0.2-1,0.7-1.5,1.7-1.5h19.1C187.7,12.5,188.1,13,188,14"/>
	<path class="st0" d="M17.4,56.3l-3.9,21.9c-0.3,1.7-1.2,2.5-2.8,2.5H2.3c-1.9,0-2.6-0.8-2.3-2.5l10.3-58.2c0.3-1.7,1.3-2.5,2.9-2.5
		h25.7c1.6,0,2.3,0.8,2.1,2.4l-1.3,7.5c-0.3,1.6-1.2,2.4-2.7,2.4H22.1l-2.5,14.1h14c1.6,0,2.3,0.8,2.1,2.4L34.4,54
		c-0.3,1.6-1.2,2.3-2.7,2.3H17.4z"/>
	<path class="st0" d="M53.9,54.6l-2.5,13.9H67c1.7,0,2.4,0.8,2.1,2.4l-1.3,7.5c-0.4,1.6-1.3,2.4-2.7,2.4H38.4
		c-1.7,0-2.4-0.8-2.1-2.4L46.5,20c0.2-1.6,1.1-2.4,2.7-2.4h26.5c1.7,0,2.4,0.8,2.1,2.4l-1.3,7.5c-0.2,1.6-1.1,2.4-2.7,2.4H58.2
		l-2.2,12.7h14.5c1.6,0,2.3,0.8,2.1,2.4l-1.3,7.1c-0.2,1.6-1,2.4-2.6,2.4H53.9z"/>
	<path class="st0" d="M89.4,68.2H102c1.7,0,2.4,0.8,2.1,2.4l-1.3,7.7c-0.3,1.6-1.2,2.4-2.7,2.4H76.2c-1.7,0-2.4-0.8-2.1-2.4L84.4,20
		c0.2-1.6,1.1-2.4,2.7-2.4h8.7c1.7,0,2.4,0.8,2.1,2.4L89.4,68.2z"/>
	<polygon class="st1" points="137.8,85.5 137.3,88.5 146.4,88.5 146.9,85.5 	"/>
	<polygon class="st3" points="146.9,85.5 146.4,88.5 155.5,88.5 156,85.5 	"/>
	<polygon class="st2" points="156,85.5 155.5,88.5 164.7,88.5 165.2,85.5 	"/>
	<polygon class="st4" points="164.7,88.5 173.8,88.5 174.3,85.5 165.2,85.5 	"/>
</g>
</svg>
