<?xml version="1.0" encoding="utf-8"?>
<!-- Generator: Adobe Illustrator 19.2.1, SVG Export Plug-In . SVG Version: 6.00 Build 0)  -->
<svg version="1.1" id="Capa_1" xmlns="http://www.w3.org/2000/svg" xmlns:xlink="http://www.w3.org/1999/xlink" x="0px" y="0px"
	 viewBox="0 0 157.8 46.2" style="enable-background:new 0 0 157.8 46.2;" xml:space="preserve">
<style type="text/css">
	.st0{fill:#26282A;}
	.st1{fill:#F17121;}
	.st2{fill:#D51770;}
	.st3{fill:#0EB8B2;}
	.st4{fill:#FACC09;}
	.st5{fill:#FFFFFF;}
</style>
<g>
	<path class="st0" d="M66,5.6c0.1-0.5,0.4-0.7,0.8-0.7h8.6c0.5,0,0.8,0.2,0.7,0.7l-0.4,2.3c-0.1,0.5-0.3,0.7-0.8,0.7h-2.3l-2.6,14.8
		c-0.1,0.5-0.3,0.7-0.8,0.7h-2.7c-0.5,0-0.8-0.2-0.7-0.7l2.6-14.8h-2.2c-0.5,0-0.7-0.2-0.7-0.7L66,5.6z"/>
	<path class="st0" d="M83.9,4.9c0.6,0,0.9,0.3,0.9,0.8l0.2,17.8c0,0.5-0.2,0.8-0.7,0.8h-2.7c-0.5,0-0.7-0.2-0.7-0.7v-3.1h-3.5
		l-1.1,3.1c-0.1,0.3-0.2,0.4-0.3,0.5c-0.1,0.1-0.3,0.2-0.5,0.2h-2.8c-0.3,0-0.4-0.1-0.5-0.2c-0.1-0.1-0.1-0.3,0-0.6l6.5-17.8
		c0.2-0.5,0.6-0.8,1.2-0.8H83.9z M81.2,16.8l0.1-7.8h-0.1l-2.6,7.8H81.2z"/>
	<path class="st0" d="M96,20.5c0.3-0.1,0.5,0,0.6,0.1c0.1,0.1,0.2,0.3,0.1,0.5l-0.2,2.1c0,0.3-0.1,0.4-0.3,0.6
		c-0.1,0.1-0.3,0.2-0.6,0.3c-0.9,0.2-1.7,0.3-2.6,0.3c-2,0-3.4-0.4-4.4-1.2c-0.9-0.8-1.4-2.2-1.4-4.3c0-1.1,0.2-2.6,0.5-4.5
		c0.5-2.6,1.1-4.7,1.8-6.1c0.7-1.4,1.6-2.4,2.6-3c1-0.6,2.4-0.8,4-0.8c0.9,0,1.8,0.1,2.7,0.3c0.5,0.1,0.7,0.4,0.6,0.9l-0.5,2.1
		c-0.1,0.5-0.4,0.7-1,0.6c-0.8-0.1-1.3-0.2-1.6-0.2c-1.3,0-2.2,0.4-2.8,1.2c-0.6,0.8-1.1,2.4-1.5,5c-0.3,1.7-0.4,2.9-0.4,3.6
		c0,1,0.2,1.7,0.6,2.1c0.4,0.4,1.1,0.6,2.1,0.6C94.7,20.7,95.3,20.7,96,20.5z"/>
	<path class="st0" d="M101.5,5.6c0.1-0.5,0.4-0.7,0.8-0.7h2.7c0.5,0,0.7,0.2,0.7,0.7l-3.2,17.9c-0.1,0.5-0.4,0.7-0.8,0.7H99
		c-0.5,0-0.8-0.2-0.7-0.7L101.5,5.6z"/>
	<path class="st0" d="M117.8,5.8c0.9,0.8,1.3,2.3,1.3,4.3c0,1.2-0.2,2.6-0.5,4.4c-0.5,2.6-1,4.7-1.7,6.1c-0.7,1.5-1.5,2.5-2.4,3
		c-0.9,0.5-2.1,0.8-3.5,0.8c-1.7,0-3-0.4-3.9-1.2c-0.9-0.8-1.3-2.2-1.3-4.3c0-1.1,0.2-2.6,0.5-4.4c0.5-2.6,1.1-4.7,1.8-6.1
		s1.5-2.5,2.4-3c0.9-0.5,2.1-0.8,3.5-0.8C115.6,4.6,116.9,5,117.8,5.8z M113.1,19.6c0.4-0.8,0.9-2.5,1.3-5c0.3-2.1,0.5-3.5,0.5-4.3
		c0-0.8-0.1-1.3-0.3-1.6s-0.6-0.4-1-0.4c-0.5,0-0.9,0.2-1.3,0.5c-0.3,0.3-0.6,0.9-0.9,1.8c-0.3,0.9-0.6,2.2-0.9,4
		c-0.3,2.1-0.5,3.5-0.5,4.3s0.1,1.3,0.3,1.6c0.2,0.3,0.6,0.4,1.1,0.4C112.1,20.8,112.7,20.4,113.1,19.6z"/>
	<path class="st0" d="M131,23.5c-0.1,0.5-0.3,0.7-0.8,0.7h-2.3c-0.5,0-0.8-0.2-0.9-0.6l-2.2-10l-1.8,9.9c-0.1,0.5-0.4,0.7-0.8,0.7
		h-2.6c-0.5,0-0.7-0.2-0.7-0.7l3.2-17.9c0.1-0.5,0.3-0.7,0.8-0.7h2.3c0.5,0,0.8,0.2,0.9,0.6l2.2,10l1.7-9.9c0.1-0.5,0.4-0.7,0.8-0.7
		h2.5c0.5,0,0.7,0.2,0.7,0.7L131,23.5z"/>
	<path class="st0" d="M138.7,16.2l-0.8,4.3h4.8c0.5,0,0.8,0.2,0.7,0.7l-0.4,2.3c-0.1,0.5-0.4,0.7-0.8,0.7h-8.2
		c-0.5,0-0.7-0.2-0.7-0.7l3.2-17.9c0.1-0.5,0.3-0.7,0.8-0.7h8.1c0.5,0,0.7,0.2,0.6,0.7l-0.4,2.3c-0.1,0.5-0.3,0.7-0.8,0.7H140
		l-0.7,3.9h4.4c0.5,0,0.7,0.2,0.7,0.7l-0.4,2.2c-0.1,0.5-0.3,0.7-0.8,0.7H138.7z"/>
	<path class="st0" d="M153.7,22.7c-1.2,1.2-2.8,1.8-4.8,1.8c-1.7,0-3-0.1-3.8-0.4c-0.3-0.1-0.5-0.2-0.6-0.3s-0.1-0.3-0.1-0.6L145,21
		c0.1-0.6,0.5-0.8,1-0.6c0.7,0.2,1.5,0.3,2.4,0.3c0.8,0,1.4-0.2,1.9-0.5c0.5-0.3,0.8-0.9,0.8-1.7c0-0.4-0.1-0.8-0.4-1.2
		c-0.3-0.4-0.7-0.9-1.4-1.4c-1.7-1.4-2.5-3-2.5-5c0-4.3,2.1-6.4,6.4-6.4c1.4,0,2.4,0.1,3.2,0.3c0.3,0.1,0.4,0.2,0.5,0.3
		c0.1,0.1,0.1,0.3,0,0.6L156.5,8c-0.1,0.5-0.4,0.7-1,0.5c-0.7-0.2-1.4-0.2-2.1-0.2c-1.5,0-2.2,0.7-2.2,2c0,0.8,0.6,1.7,1.7,2.8
		c1.7,1.5,2.6,3.2,2.6,5C155.5,20,154.9,21.6,153.7,22.7z"/>
</g>
<g>
	<path class="st0" d="M55.7,24.3c0,0,4.7,0.9,5.4-3.7c0.4-3,2.9-19.2,2.9-19.2c0.1-0.7-0.4-1.4-1.1-1.4H39.4c-0.7,0-1.4,0.6-1.6,1.4
		l-3.9,26.1c-0.1,0.7,0.4,1.4,1.1,1.4h16.3C55.9,28.9,55.7,24.3,55.7,24.3z"/>
</g>
<path class="st1" d="M27,3.8h2.7c0.4,0,0.7-0.3,0.8-0.7l0.4-2.4C31,0.3,30.7,0,30.3,0h-2.7c-0.4,0-0.7,0.3-0.8,0.7l-0.4,2.4
	C26.4,3.5,26.6,3.8,27,3.8z"/>
<path class="st2" d="M102.6,3.9h2.7c0.4,0,0.7-0.3,0.8-0.7l0.4-2.4c0.1-0.4-0.2-0.7-0.6-0.7h-2.7c-0.4,0-0.7,0.3-0.8,0.7L102,3.2
	C102,3.6,102.2,3.9,102.6,3.9z"/>
<path class="st3" d="M10.6,28.9h2.7c0.4,0,0.7-0.3,0.8-0.7l0.4-2.4c0.1-0.4-0.2-0.7-0.6-0.7h-2.7c-0.4,0-0.7,0.3-0.8,0.7L10,28.2
	C9.9,28.6,10.2,28.9,10.6,28.9z"/>
<path class="st0" d="M42.9,45.3h1.4c0.2,0,0.4-0.2,0.4-0.4l0.2-1.3c0-0.2-0.1-0.4-0.3-0.4h-1.4c-0.2,0-0.4,0.2-0.4,0.4L42.6,45
	C42.6,45.2,42.7,45.3,42.9,45.3z"/>
<path class="st0" d="M39.1,41.6h1.4c0.2,0,0.4-0.2,0.4-0.4l0.2-1.3c0-0.2-0.1-0.4-0.3-0.4h-1.4c-0.2,0-0.4,0.2-0.4,0.4l-0.2,1.3
	C38.7,41.4,38.9,41.6,39.1,41.6z"/>
<path class="st4" d="M126.7,28.9h2.7c0.4,0,0.7-0.3,0.8-0.7l0.4-2.4c0.1-0.4-0.2-0.7-0.6-0.7h-2.7c-0.4,0-0.7,0.3-0.8,0.7l-0.4,2.4
	C126.1,28.6,126.4,28.9,126.7,28.9z"/>
<path class="st0" d="M44.9,31.9c0-0.3,0.2-0.4,0.4-0.4h1.4c0.3,0,0.4,0.1,0.3,0.4l-1.8,10.1c-0.1,0.3-0.2,0.4-0.4,0.4h-1.4
	c-0.3,0-0.4-0.1-0.3-0.4L44.9,31.9z"/>
<path class="st0" d="M40.4,31.9c0-0.3,0.2-0.4,0.4-0.4h1.4c0.3,0,0.4,0.1,0.3,0.4l-1.1,6.4c-0.1,0.3-0.2,0.4-0.4,0.4h-1.4
	c-0.3,0-0.4-0.1-0.3-0.4L40.4,31.9z"/>
<path class="st0" d="M48.1,41.6h1.4c0.2,0,0.4-0.2,0.4-0.4l0.2-1.3c0-0.2-0.1-0.4-0.3-0.4h-1.4c-0.2,0-0.4,0.2-0.4,0.4l-0.2,1.3
	C47.8,41.4,47.9,41.6,48.1,41.6z"/>
<path class="st0" d="M49.5,31.9c0-0.3,0.2-0.4,0.4-0.4h1.4c0.3,0,0.4,0.1,0.3,0.4l-1.1,6.4c-0.1,0.3-0.2,0.4-0.4,0.4h-1.4
	c-0.3,0-0.4-0.1-0.3-0.4L49.5,31.9z"/>
<g>
	<path class="st5" d="M45.1,3.7c0.1-0.3,0.2-0.5,0.5-0.5h1.9c0.3,0,0.5,0.2,0.4,0.5l-1.4,8.2c-0.1,0.3-0.2,0.5-0.5,0.5h-1.9
		c-0.3,0-0.5-0.2-0.4-0.5L45.1,3.7z"/>
	<path class="st5" d="M48,10.4c0-0.2,0.2-0.5,0.4-0.7l4-4h-3c-0.3,0-0.4-0.2-0.4-0.5l0.3-1.5c0.1-0.3,0.2-0.5,0.5-0.5h5.9
		c0.3,0,0.5,0.2,0.4,0.5l-0.3,1.5c0,0.2-0.2,0.5-0.4,0.7l-4,4h3.2c0.3,0,0.5,0.2,0.4,0.5l-0.3,1.5c-0.1,0.3-0.2,0.5-0.5,0.5h-6.1
		c-0.3,0-0.5-0.2-0.4-0.5L48,10.4z"/>
	<path class="st5" d="M41.7,21.6c0-0.2,0.2-0.5,0.4-0.7l4-4h-3c-0.3,0-0.4-0.2-0.4-0.5l0.3-1.5c0.1-0.3,0.2-0.5,0.5-0.5h5.9
		c0.3,0,0.5,0.2,0.4,0.5l-0.3,1.5c0,0.2-0.2,0.5-0.4,0.7l-4,4h3.2c0.3,0,0.5,0.2,0.4,0.5l-0.3,1.5c-0.1,0.3-0.2,0.5-0.5,0.5h-6.1
		c-0.3,0-0.5-0.2-0.4-0.5L41.7,21.6z"/>
	<path class="st5" d="M51.2,14.9c0.1-0.3,0.2-0.5,0.5-0.5h1.9c0.3,0,0.5,0.2,0.4,0.5l-1.4,8.2c-0.1,0.3-0.2,0.5-0.5,0.5h-1.9
		c-0.3,0-0.5-0.2-0.4-0.5L51.2,14.9z"/>
</g>
<g>
	<g>
		<polygon class="st1" points="43.4,26.5 40.6,26.5 40.7,25.6 43.5,25.6 		"/>
	</g>
	<g>
		<polygon class="st3" points="46.2,26.5 43.4,26.5 43.5,25.6 46.3,25.6 		"/>
	</g>
	<g>
		<polygon class="st2" points="49,26.5 46.2,26.5 46.3,25.6 49.1,25.6 		"/>
	</g>
	<g>
		<polygon class="st4" points="51.8,26.5 49,26.5 49.1,25.6 51.9,25.6 		"/>
	</g>
</g>
<path class="st0" d="M5.4,16.7l-1.2,6.7c-0.1,0.5-0.4,0.8-0.9,0.8H0.7c-0.6,0-0.8-0.3-0.7-0.8L3.2,5.6C3.3,5,3.6,4.8,4.1,4.8h7.9
	c0.5,0,0.7,0.2,0.7,0.7l-0.4,2.3c-0.1,0.5-0.4,0.7-0.8,0.7H6.8L6,12.9h4.3c0.5,0,0.7,0.2,0.6,0.7L10.6,16c-0.1,0.5-0.4,0.7-0.8,0.7
	H5.4z"/>
<path class="st0" d="M16.5,16.1l-0.8,4.3h4.8c0.5,0,0.8,0.2,0.7,0.7l-0.4,2.3c-0.1,0.5-0.4,0.7-0.8,0.7h-8.2c-0.5,0-0.7-0.2-0.7-0.7
	l3.2-17.9c0.1-0.5,0.3-0.7,0.8-0.7h8.1c0.5,0,0.7,0.2,0.6,0.7l-0.4,2.3c-0.1,0.5-0.3,0.7-0.8,0.7h-4.8l-0.7,3.9h4.4
	c0.5,0,0.7,0.2,0.7,0.7l-0.4,2.2c-0.1,0.5-0.3,0.7-0.8,0.7H16.5z"/>
<path class="st0" d="M27.4,20.3h3.9c0.5,0,0.7,0.2,0.6,0.7l-0.4,2.4c-0.1,0.5-0.4,0.7-0.8,0.7h-7.3c-0.5,0-0.8-0.2-0.7-0.7l3.2-17.9
	C26,5,26.2,4.8,26.7,4.8h2.7c0.5,0,0.8,0.2,0.7,0.7L27.4,20.3z"/>
</svg>
