<?xml version="1.0" encoding="utf-8"?>
<!-- Generator: Adobe Illustrator 19.2.1, SVG Export Plug-In . SVG Version: 6.00 Build 0)  -->
<svg version="1.1" id="Layer_1_copy" xmlns="http://www.w3.org/2000/svg" xmlns:xlink="http://www.w3.org/1999/xlink" x="0px"
	 y="0px" viewBox="0 0 378 156" style="enable-background:new 0 0 378 156;" xml:space="preserve">
<style type="text/css">
	.st0{fill:#FFFFFF;}
	.st1{fill:#FFD844;}
	.st2{fill:#D30469;}
	.st3{fill:#EE7917;}
	.st4{fill:#00A5A7;}
</style>
<g>
	<g>
		<rect x="295.5" y="32.1" class="st0" width="23.1" height="72.2"/>
		<rect x="295.5" y="128.5" class="st1" width="23.1" height="20.6"/>
		<rect x="346.7" y="32.1" class="st2" width="24.3" height="22"/>
		<rect x="58" y="5.3" class="st3" width="23" height="22"/>
		<rect x="5.3" y="102.8" class="st4" width="23.5" height="20.9"/>
		<rect x="58" y="52.8" class="st0" width="23" height="70.9"/>
		<polygon class="st0" points="179.6,32.1 100.8,32.1 100.8,54.1 148.3,54.1 99.5,102.2 99.5,124.2 179.6,124.2 179.6,102.2 
			132.3,102.2 179.6,54.1 		"/>
		<polygon class="st0" points="276,32.1 197.1,32.1 197.1,54.1 244.7,54.1 195.9,102.2 195.9,124.2 276,124.2 276,102.2 
			228.6,102.2 276,54.1 		"/>
	</g>
	<g>
		<path class="st0" d="M336.1,91.5c3.5,0,6.2,2.7,6.2,6.2s-2.7,6.2-6.2,6.2s-6.3-2.7-6.3-6.2C329.8,94.2,332.5,91.5,336.1,91.5
			L336.1,91.5z M336,92.6c-2.8,0-4.9,2.3-4.9,5.1c0,2.9,2.1,5.1,5,5.1c2.8,0,4.9-2.2,4.9-5.1C341,94.9,338.9,92.6,336,92.6L336,92.6
			z M335,101.1h-1.2v-6.5c0.7-0.1,1.4-0.2,2.2-0.2c1.1,0,1.6,0.2,2,0.5s0.7,0.8,0.7,1.4c0,0.8-0.6,1.3-1.2,1.5v0.1
			c0.5,0.2,0.9,0.7,1,1.6c0.2,1,0.4,1.4,0.5,1.6h-1.2c-0.2-0.2-0.3-0.8-0.5-1.7c-0.2-0.7-0.6-1-1.5-1H335V101.1z M335,97.4h0.8
			c0.9,0,1.7-0.3,1.7-1c0-0.6-0.4-1.1-1.6-1.1c-0.5,0-0.7,0-0.9,0.1V97.4z"/>
	</g>
</g>
</svg>
