<?xml version="1.0" encoding="utf-8"?>
<!-- Generator: Adobe Illustrator 19.2.1, SVG Export Plug-In . SVG Version: 6.00 Build 0)  -->
<svg version="1.1" id="Layer_1_copy" xmlns="http://www.w3.org/2000/svg" xmlns:xlink="http://www.w3.org/1999/xlink" x="0px"
	 y="0px" viewBox="0 0 680.3 272.6" style="enable-background:new 0 0 680.3 272.6;" xml:space="preserve">
<style type="text/css">
	.st0{fill:#FFFFFF;}
	.st1{fill:#1D1D1B;}
	.st2{fill:#FFD844;}
	.st3{fill:#D30469;}
	.st4{fill:#EE7917;}
	.st5{fill:#00A5A7;}
</style>
<path class="st0" d="M664.8-52c0,179.3-145.3,324.6-324.6,324.6S15.5,127.3,15.5-52"/>
<g>
	<g>
		<rect x="447.5" y="77.1" class="st1" width="23.1" height="72.2"/>
		<rect x="447.5" y="173.5" class="st2" width="23.1" height="20.6"/>
		<rect x="498.7" y="77.1" class="st3" width="24.3" height="22"/>
		<rect x="210" y="50.3" class="st4" width="23" height="22"/>
		<rect x="157.3" y="147.8" class="st5" width="23.5" height="20.9"/>
		<rect x="210" y="97.8" class="st1" width="23" height="70.9"/>
		<polygon class="st1" points="331.6,77.1 252.8,77.1 252.8,99.1 300.3,99.1 251.5,147.2 251.5,169.2 331.6,169.2 331.6,147.2 
			284.3,147.2 331.6,99.1 		"/>
		<polygon class="st1" points="428,77.1 349.1,77.1 349.1,99.1 396.7,99.1 347.9,147.2 347.9,169.2 428,169.2 428,147.2 
			380.6,147.2 428,99.1 		"/>
	</g>
	<g>
		<path class="st1" d="M488.1,136.5c3.5,0,6.2,2.7,6.2,6.2s-2.7,6.2-6.2,6.2s-6.3-2.7-6.3-6.2C481.8,139.2,484.5,136.5,488.1,136.5
			L488.1,136.5z M488,137.6c-2.8,0-4.9,2.3-4.9,5.1c0,2.9,2.1,5.1,5,5.1c2.8,0,4.9-2.2,4.9-5.1C493,139.9,490.9,137.6,488,137.6
			L488,137.6z M487,146.1h-1.2v-6.5c0.7-0.1,1.4-0.2,2.2-0.2c1.1,0,1.6,0.2,2,0.5s0.7,0.8,0.7,1.4c0,0.8-0.6,1.3-1.2,1.5v0.1
			c0.5,0.2,0.9,0.7,1,1.6c0.2,1,0.4,1.4,0.5,1.6h-1.2c-0.2-0.2-0.3-0.8-0.5-1.7c-0.2-0.7-0.6-1-1.5-1H487V146.1z M487,142.4h0.8
			c0.9,0,1.7-0.3,1.7-1c0-0.6-0.4-1.1-1.6-1.1c-0.5,0-0.7,0-0.9,0.1V142.4z"/>
	</g>
</g>
</svg>
